<svg xmlns="http://www.w3.org/2000/svg" xmlns:xlink="http://www.w3.org/1999/xlink" xmlns:s="https://github.com/nturley/netlistsvg" width="491" height="366">
  <style>svg {
    stroke:#000;
    fill:none;
  }
  text {
    fill:#000;
    stroke:none;
    font-size:10px;
    font-weight: bold;
    font-family: "Courier New", monospace;
  }
  .nodelabel {
    text-anchor: middle;
  }
  .inputPortLabel {
    text-anchor: end;
  }
  .splitjoinBody {
    fill:#000;
  }</style>
  <g s:type="eq" transform="translate(143.66666666666666,313)" s:width="25" s:height="25" id="cell_$eq$one_cycle_pulse_detector.v:17$2">
    <s:alias val="$eq"/>
    <circle r="12.5" cx="12.5" cy="12.5" class="cell_$eq$one_cycle_pulse_detector.v:17$2"/>
    <line x1="7.5" x2="17.5" y1="10" y2="10" class="cell_$eq$one_cycle_pulse_detector.v:17$2"/>
    <line x1="7.5" x2="17.5" y1="15" y2="15" class="cell_$eq$one_cycle_pulse_detector.v:17$2"/>
    <g s:x="3" s:y="5" s:pid="A"/>
    <g s:x="3" s:y="20" s:pid="B"/>
    <g s:x="25" s:y="12.5" s:pid="Y"/>
  </g>
  <g s:type="generic" transform="translate(302,207.5)" s:width="30" s:height="40" id="cell_$procdff$6">
    <text x="15" y="-4" class="nodelabel cell_$procdff$6" s:attribute="ref">$adff</text>
    <rect width="30" height="60" s:generic="body" class="cell_$procdff$6"/>
    <g transform="translate(0,10)" s:x="0" s:y="10" s:pid="in0" id="port_$procdff$6~ARST">
      <text x="-3" y="-4" class="inputPortLabel cell_$procdff$6">ARST</text>
    </g>
    <g transform="translate(0,30)" s:x="0" s:y="10" s:pid="in0" id="port_$procdff$6~CLK">
      <text x="-3" y="-4" class="inputPortLabel cell_$procdff$6">CLK</text>
    </g>
    <g transform="translate(0,50)" s:x="0" s:y="10" s:pid="in0" id="port_$procdff$6~D">
      <text x="-3" y="-4" class="inputPortLabel cell_$procdff$6">D</text>
    </g>
    <g transform="translate(30,10)" s:x="30" s:y="10" s:pid="out0" id="port_$procdff$6~Q">
      <text x="5" y="-4" style="fill:#000; stroke:none" class="cell_$procdff$6">Q</text>
    </g>
  </g>
  <g s:type="generic" transform="translate(302,99.5)" s:width="30" s:height="40" id="cell_$procdff$7">
    <text x="15" y="-4" class="nodelabel cell_$procdff$7" s:attribute="ref">$adff</text>
    <rect width="30" height="60" s:generic="body" class="cell_$procdff$7"/>
    <g transform="translate(0,10)" s:x="0" s:y="10" s:pid="in0" id="port_$procdff$7~ARST">
      <text x="-3" y="-4" class="inputPortLabel cell_$procdff$7">ARST</text>
    </g>
    <g transform="translate(0,30)" s:x="0" s:y="10" s:pid="in0" id="port_$procdff$7~CLK">
      <text x="-3" y="-4" class="inputPortLabel cell_$procdff$7">CLK</text>
    </g>
    <g transform="translate(0,50)" s:x="0" s:y="10" s:pid="in0" id="port_$procdff$7~D">
      <text x="-3" y="-4" class="inputPortLabel cell_$procdff$7">D</text>
    </g>
    <g transform="translate(30,10)" s:x="30" s:y="10" s:pid="out0" id="port_$procdff$7~Q">
      <text x="5" y="-4" style="fill:#000; stroke:none" class="cell_$procdff$7">Q</text>
    </g>
  </g>
  <g s:type="mux" transform="translate(210.33333333333334,238)" s:width="20" s:height="40" id="cell_$procmux$4">
    <s:alias val="$pmux"/>
    <s:alias val="$mux"/>
    <s:alias val="$_MUX_"/>
    <path d="M0,0 L20,10 L20,30 L0,40 Z" class="cell_$procmux$4"/>
    <g s:x="0" s:y="10" s:pid="A"/>
    <g s:x="0" s:y="30" s:pid="B"/>
    <g s:x="10" s:y="35" s:pid="S"/>
    <g s:x="20" s:y="20" s:pid="Y"/>
  </g>
  <g s:type="inputExt" transform="translate(207,120)" s:width="30" s:height="20" id="cell_clk">
    <text x="15" y="-4" class="nodelabel cell_clk" s:attribute="ref">clk</text>
    <s:alias val="$_inputExt_"/>
    <path d="M0,0 L0,20 L15,20 L30,10 L15,0 Z" class="cell_clk"/>
    <g s:x="28" s:y="10" s:pid="Y"/>
  </g>
  <g s:type="inputExt" transform="translate(207,69)" s:width="30" s:height="20" id="cell_rst">
    <text x="15" y="-4" class="nodelabel cell_rst" s:attribute="ref">rst</text>
    <s:alias val="$_inputExt_"/>
    <path d="M0,0 L0,20 L15,20 L30,10 L15,0 Z" class="cell_rst"/>
    <g s:x="28" s:y="10" s:pid="Y"/>
  </g>
  <g s:type="inputExt" transform="translate(12,79)" s:width="30" s:height="20" id="cell_a">
    <text x="15" y="-4" class="nodelabel cell_a" s:attribute="ref">a</text>
    <s:alias val="$_inputExt_"/>
    <path d="M0,0 L0,20 L15,20 L30,10 L15,0 Z" class="cell_a"/>
    <g s:x="28" s:y="10" s:pid="Y"/>
  </g>
  <g s:type="outputExt" transform="translate(397,208)" s:width="30" s:height="20" id="cell_detected">
    <text x="15" y="-4" class="nodelabel cell_detected" s:attribute="ref">detected</text>
    <s:alias val="$_outputExt_"/>
    <path d="M30,0 L30,20 L15,20 L0,10 L15,0 Z" class="cell_detected"/>
    <g s:x="0" s:y="10" s:pid="A"/>
  </g>
  <g s:type="outputExt" transform="translate(397,22)" s:width="30" s:height="20" id="cell_cur_sequence">
    <text x="15" y="-4" class="nodelabel cell_cur_sequence" s:attribute="ref">cur_sequence</text>
    <s:alias val="$_outputExt_"/>
    <path d="M30,0 L30,20 L15,20 L0,10 L15,0 Z" class="cell_cur_sequence"/>
    <g s:x="0" s:y="10" s:pid="A"/>
  </g>
  <g s:type="constant" transform="translate(77,323)" s:width="30" s:height="20" id="cell_010">
    <text x="15" y="-4" class="nodelabel cell_010" s:attribute="ref">010</text>
    <s:alias val="$_constant_"/>
    <rect width="30" height="20" class="cell_010"/>
    <g s:x="30" s:y="10" s:pid="Y"/>
  </g>
  <g s:type="constant" transform="translate(142,193)" s:width="30" s:height="20" id="cell_0">
    <text x="15" y="-4" class="nodelabel cell_0" s:attribute="ref">0</text>
    <s:alias val="$_constant_"/>
    <rect width="30" height="20" class="cell_0"/>
    <g s:x="30" s:y="10" s:pid="Y"/>
  </g>
  <g s:type="constant" transform="translate(142,258)" s:width="30" s:height="20" id="cell_1">
    <text x="15" y="-4" class="nodelabel cell_1" s:attribute="ref">1</text>
    <s:alias val="$_constant_"/>
    <rect width="30" height="20" class="cell_1"/>
    <g s:x="30" s:y="10" s:pid="Y"/>
  </g>
  <g s:type="join" transform="translate(93.66666666666666,78.5)" s:width="4" s:height="40" id="cell_$join$,4,6,7,">
    <rect width="5" height="40" class="splitjoinBody" s:generic="body"/>
    <s:alias val="$_join_"/>
    <g s:x="5" s:y="20" s:pid="out"/>
    <g transform="translate(0,10)" s:x="0" s:y="10" s:pid="in0">
      <text x="-3" y="-4" class="inputPortLabel">0</text>
    </g>
    <g transform="translate(0,30)" s:x="0" s:y="10" s:pid="in0">
      <text x="-3" y="-4" class="inputPortLabel">1:2</text>
    </g>
  </g>
  <g s:type="split" transform="translate(397,77)" s:width="5" s:height="40" id="cell_$split$,6,7,8,">
    <rect width="5" height="20" class="splitjoinBody" s:generic="body"/>
    <s:alias val="$_split_"/>
    <g s:x="0" s:y="20" s:pid="in"/>
    <g transform="translate(4,10)" s:x="4" s:y="10" s:pid="out0">
      <text x="5" y="-4">0:1</text>
    </g>
  </g>
  <line x1="99.66666666666666" x2="117" y1="99" y2="99" class="net_4,6,7"/>
  <line x1="117" x2="117" y1="99" y2="318" class="net_4,6,7"/>
  <circle cx="117" cy="99" r="2" style="fill:#000" class="net_4,6,7"/>
  <line x1="117" x2="146.66666666666666" y1="318" y2="318" class="net_4,6,7"/>
  <line x1="99.66666666666666" x2="257" y1="99" y2="99" class="net_4,6,7"/>
  <line x1="257" x2="257" y1="99" y2="150" class="net_4,6,7"/>
  <line x1="257" x2="302" y1="150" y2="150" class="net_4,6,7"/>
  <line x1="107" x2="146.66666666666666" y1="333" y2="333" class="net_11,12,13"/>
  <line x1="235" x2="267" y1="79" y2="79" class="net_3"/>
  <line x1="267" x2="267" y1="79" y2="218" class="net_3"/>
  <line x1="267" x2="302" y1="218" y2="218" class="net_3"/>
  <line x1="235" x2="267" y1="79" y2="79" class="net_3"/>
  <line x1="267" x2="267" y1="79" y2="110" class="net_3"/>
  <circle cx="267" cy="110" r="2" style="fill:#000" class="net_3"/>
  <line x1="267" x2="302" y1="110" y2="110" class="net_3"/>
  <line x1="235" x2="247" y1="130" y2="130" class="net_2"/>
  <line x1="247" x2="247" y1="130" y2="238" class="net_2"/>
  <circle cx="247" cy="130" r="2" style="fill:#000" class="net_2"/>
  <line x1="247" x2="302" y1="238" y2="238" class="net_2"/>
  <line x1="235" x2="302" y1="130" y2="130" class="net_2"/>
  <line x1="230.33333333333334" x2="302" y1="258" y2="258" class="net_10"/>
  <line x1="172" x2="182" y1="203" y2="203" class="net_14"/>
  <line x1="182" x2="182" y1="203" y2="248" class="net_14"/>
  <line x1="182" x2="210.33333333333334" y1="248" y2="248" class="net_14"/>
  <line x1="172" x2="210.33333333333334" y1="268" y2="268" class="net_15"/>
  <line x1="168.66666666666666" x2="220.33333333333334" y1="325.5" y2="325.5" class="net_9"/>
  <line x1="220.33333333333334" x2="220.33333333333334" y1="325.5" y2="273" class="net_9"/>
  <line x1="333" x2="397" y1="218" y2="218" class="net_5"/>
  <line x1="333" x2="372" y1="110" y2="110" class="net_6,7,8"/>
  <line x1="372" x2="372" y1="110" y2="32" class="net_6,7,8"/>
  <circle cx="372" cy="110" r="2" style="fill:#000" class="net_6,7,8"/>
  <line x1="372" x2="397" y1="32" y2="32" class="net_6,7,8"/>
  <line x1="333" x2="397.5" y1="110" y2="110" class="net_6,7,8"/>
  <line x1="397.5" x2="397.5" y1="110" y2="98" class="net_6,7,8"/>
  <line x1="40" x2="93.66666666666666" y1="89" y2="89" class="net_4"/>
  <line x1="402" x2="479" y1="87.5" y2="87.5" class="net_6,7"/>
  <line x1="479" x2="479" y1="87.5" y2="353" class="net_6,7"/>
  <line x1="479" x2="52" y1="353" y2="353" class="net_6,7"/>
  <line x1="52" x2="52" y1="353" y2="109" class="net_6,7"/>
  <line x1="52" x2="93.66666666666666" y1="109" y2="109" class="net_6,7"/>
</svg>
